<svg width="91" height="89" viewBox="0 0 91 89" fill="none" xmlns="http://www.w3.org/2000/svg">
<path d="M3.99463 4.17188H87.1696V85.0065H3.99463V4.17188Z" fill="url(#paint0_radial)"/>
<path d="M3.9947 4.17228H87.1697V85.0069H3.9947V4.17228ZM0.214844 88.7827H90.9677V0.396484H0.214844V88.7827ZM59.6567 31.9098C59.6567 31.6012 59.7657 31.456 60.111 31.456H66.0534C66.3623 31.456 66.5077 31.5649 66.5077 31.9098V61.7168C66.5077 62.0254 66.435 62.1706 66.0534 62.1706H60.1837C59.8021 62.1706 59.693 61.9891 59.693 61.6805V31.9098H59.6567ZM59.2387 23.3235C59.2387 20.9092 60.9469 19.4751 63.0913 19.4751C65.3992 19.4751 66.9438 21.0181 66.9438 23.3235C66.9438 25.8105 65.3265 27.1719 63.0186 27.1719C60.8379 27.1901 59.2387 25.8286 59.2387 23.3235ZM42.2294 44.3264C41.1754 40.1331 38.6676 31.0022 37.7226 26.5729H37.6499C36.8504 30.984 34.8514 38.463 33.2704 44.3264H42.2294ZM31.7257 50.4439L28.7455 61.7713C28.6728 62.0799 28.5638 62.1525 28.1821 62.1525H22.6214C22.2398 62.1525 22.1671 62.0436 22.2398 61.5897L32.9796 24.0497C33.1614 23.378 33.2886 22.7608 33.3613 20.9092C33.3613 20.6369 33.4703 20.528 33.6702 20.528H41.6115C41.8841 20.528 41.9931 20.6006 42.0658 20.9092L54.096 61.6624C54.1686 61.971 54.0959 62.1525 53.787 62.1525H47.5175C47.2086 62.1525 47.0269 62.0799 46.9542 61.8076L43.8467 50.4439H31.7257Z" fill="#FF7F18"/>
<defs>
<radialGradient id="paint0_radial" cx="0" cy="0" r="1" gradientUnits="userSpaceOnUse" gradientTransform="translate(31.4156 22.3109) scale(63.2157 61.1385)">
<stop stop-color="#423325" stop-opacity="0.98"/>
<stop offset="1" stop-color="#1C0A00"/>
</radialGradient>
</defs>
</svg>
