<svg width="91" height="90" viewBox="0 0 91 90" fill="none" xmlns="http://www.w3.org/2000/svg">
<path d="M4.64648 4.42578H86.877V85.2804H4.64648V4.42578Z" fill="url(#paint0_radial)"/>
<path d="M4.64628 4.42575H86.8768V85.2803H4.64628V4.42575ZM0.907715 89.0596H90.5974V0.646484H0.907715V89.0596ZM61.3898 36.9311C58.4421 36.9311 57.4356 38.4392 57.4356 39.6929C57.4356 41.0556 58.1006 42.0004 62.0728 44.0717C67.9323 46.9425 69.7657 49.7043 69.7657 53.7379C69.7657 59.7884 65.2003 63.0408 59.0353 63.0408C55.782 63.0408 52.9781 62.3685 51.3784 61.4237C51.1088 61.3146 51.0728 61.1148 51.0728 60.8241V55.246C51.0728 54.8645 51.2526 54.7554 51.5222 54.9371C53.8768 56.4815 56.5728 57.172 59.0353 57.172C61.983 57.172 63.2232 55.9183 63.2232 54.2285C63.2232 52.8658 62.3604 51.6666 58.5859 49.6861C53.2836 47.1242 51.0728 44.526 51.0728 40.1653C51.0728 35.2958 54.8473 31.244 61.3898 31.244C64.6072 31.244 66.8539 31.7346 68.0761 32.2979C68.3817 32.4796 68.4536 32.7884 68.4536 33.061V38.2393C68.4536 38.5482 68.2738 38.7299 67.8964 38.6209C66.2428 37.567 63.8163 36.9311 61.3898 36.9311ZM29.2525 41.419C30.1153 41.4917 30.7803 41.4917 32.2721 41.4917C36.6398 41.4917 40.7558 39.9472 40.7558 33.9331C40.7558 29.1364 37.8081 26.7198 32.8293 26.7198C31.3375 26.7198 29.9176 26.7925 29.2346 26.8288L29.2525 41.419ZM22.5842 21.3598C22.5842 21.0872 23.1055 20.9055 23.411 20.9055C25.8015 20.7965 29.3604 20.7239 33.045 20.7239C43.398 20.7239 47.4421 26.4654 47.4421 33.7878C47.4421 43.3813 40.5581 47.5058 32.1104 47.5058C30.6904 47.5058 30.2051 47.4331 29.1986 47.4331V61.9324C29.1986 62.2413 29.0908 62.3867 28.7493 62.3867H23.0336C22.728 62.3867 22.5842 62.2776 22.5842 61.9324V21.3598Z" fill="#31C5F0"/>
<defs>
<radialGradient id="paint0_radial" cx="0" cy="0" r="1" gradientUnits="userSpaceOnUse" gradientTransform="translate(31.7371 22.5656) scale(62.486 61.1565)">
<stop stop-color="#34364E" stop-opacity="0.98"/>
<stop offset="1" stop-color="#0C0824"/>
</radialGradient>
</defs>
</svg>
