<svg width="92" height="89" viewBox="0 0 92 89" fill="none" xmlns="http://www.w3.org/2000/svg">
<path d="M4.50903 4.17188H87.6841V85.0065H4.50903V4.17188Z" fill="url(#paint0_radial)"/>
<path d="M4.50911 4.17228H87.6842V85.0069H4.50911V4.17228ZM0.729248 88.7827H91.4822V0.396484H0.729248V88.7827ZM64.9324 43.0012C66.8586 43.0012 67.5492 43.0012 67.7309 42.9286C67.7309 42.6563 67.8036 42.4748 67.8036 42.2933C67.8036 40.2601 66.8223 36.4844 62.897 36.4844C59.2626 36.4844 57.7179 39.6611 57.3363 43.0194H64.9324V43.0012ZM57.2636 48.1748C57.3363 53.2757 59.7532 56.7066 65.5139 56.7066C67.7491 56.7066 69.6754 56.398 71.6743 55.5448C71.9469 55.4359 72.1286 55.4722 72.1286 55.8171V60.5369C72.1286 60.9181 72.0196 61.0996 71.747 61.2993C69.748 62.2796 67.2402 62.7334 64.1509 62.7334C54.1743 62.7334 50.4308 55.3633 50.4308 47.1764C50.4308 38.2633 55.0466 30.9659 63.1696 30.9659C71.4199 30.9659 74.2911 37.8821 74.2911 43.5095C74.2911 45.3248 74.1821 46.7952 73.9822 47.5213C73.9095 47.8299 73.8005 47.9388 73.4916 48.0114C72.7283 48.1203 70.5113 48.2837 67.1857 48.2837H57.2818V48.1748H57.2636ZM36.9832 44.3264C35.9292 40.1331 33.3487 31.0022 32.4038 26.5729H32.3311C31.5315 30.984 29.4598 38.463 27.9152 44.3264H36.9832ZM26.3705 50.4439L23.3902 61.735C23.3175 62.0436 23.2085 62.1525 22.8269 62.1525H17.248C16.8663 62.1525 16.7937 62.0436 16.8663 61.5897L27.6062 24.086C27.788 23.4143 27.9152 22.8697 27.9879 20.9818C27.9879 20.7095 28.0969 20.6006 28.2968 20.6006H36.2381C36.5107 20.6006 36.6197 20.6732 36.6924 20.9818L48.7044 61.6624C48.7771 61.971 48.7044 62.1525 48.3955 62.1525H42.1623C41.8534 62.1525 41.6717 62.0436 41.599 61.7713L38.4915 50.4439H26.3705Z" fill="#D8A1FF"/>
<defs>
<radialGradient id="paint0_radial" cx="0" cy="0" r="1" gradientUnits="userSpaceOnUse" gradientTransform="translate(31.9278 22.2949) scale(63.2158 61.1385)">
<stop stop-color="#442F55" stop-opacity="0.98"/>
<stop offset="1" stop-color="#12002C"/>
</radialGradient>
</defs>
</svg>
