<svg width="208" height="79" viewBox="0 0 208 79" fill="none" xmlns="http://www.w3.org/2000/svg">
<path fill-rule="evenodd" clip-rule="evenodd" d="M193.257 31.9531C193.257 43.5031 183.84 52.9531 172.329 52.9531H33.6848C22.1747 52.9531 12.7573 43.5031 12.7573 31.9531C12.7573 20.4031 22.1747 10.9531 33.6848 10.9531H172.329C183.97 10.9531 193.257 20.4031 193.257 31.9531Z" fill="#070707"/>
<g opacity="0.1" filter="url(#filter0_f)">
<path fill-rule="evenodd" clip-rule="evenodd" d="M187.24 39.9531C187.24 50.4031 178.555 58.9531 167.941 58.9531H40.0793C29.4645 58.9531 20.7795 50.4031 20.7795 39.9531C20.7795 29.5031 29.4645 20.9531 40.0793 20.9531H167.941C178.676 20.9531 187.24 29.5031 187.24 39.9531Z" fill="#070707"/>
</g>
<path d="M46.6035 38.2051C45.3555 38.2051 44.3055 37.9291 43.4535 37.3771C42.6015 36.8131 42.0015 36.0511 41.6535 35.0911L43.7775 33.8491C44.2695 35.1331 45.2355 35.7751 46.6755 35.7751C47.3715 35.7751 47.8815 35.6491 48.2055 35.3971C48.5295 35.1451 48.6915 34.8271 48.6915 34.4431C48.6915 33.9991 48.4935 33.6571 48.0975 33.4171C47.7015 33.1651 46.9935 32.8951 45.9735 32.6071C45.4095 32.4391 44.9295 32.2711 44.5335 32.1031C44.1495 31.9351 43.7595 31.7131 43.3635 31.4371C42.9795 31.1491 42.6855 30.7891 42.4815 30.3571C42.2775 29.9251 42.1755 29.4211 42.1755 28.8451C42.1755 27.7051 42.5775 26.7991 43.3815 26.1271C44.1975 25.4431 45.1755 25.1011 46.3155 25.1011C47.3355 25.1011 48.2295 25.3531 48.9975 25.8571C49.7775 26.3491 50.3835 27.0391 50.8155 27.9271L48.7275 29.1331C48.2235 28.0531 47.4195 27.5131 46.3155 27.5131C45.7995 27.5131 45.3915 27.6331 45.0915 27.8731C44.8035 28.1011 44.6595 28.4011 44.6595 28.7731C44.6595 29.1691 44.8215 29.4931 45.1455 29.7451C45.4815 29.9851 46.1175 30.2491 47.0535 30.5371C47.4375 30.6571 47.7255 30.7531 47.9175 30.8251C48.1215 30.8851 48.3915 30.9871 48.7275 31.1311C49.0755 31.2631 49.3395 31.3891 49.5195 31.5091C49.7115 31.6291 49.9275 31.7911 50.1675 31.9951C50.4075 32.1991 50.5875 32.4091 50.7075 32.6251C50.8395 32.8411 50.9475 33.1051 51.0315 33.4171C51.1275 33.7171 51.1755 34.0471 51.1755 34.4071C51.1755 35.5711 50.7495 36.4951 49.8975 37.1791C49.0575 37.8631 47.9595 38.2051 46.6035 38.2051ZM54.8957 34.4071C55.2077 35.5351 56.0537 36.0991 57.4337 36.0991C58.3217 36.0991 58.9937 35.7991 59.4497 35.1991L61.3217 36.2791C60.4337 37.5631 59.1257 38.2051 57.3977 38.2051C55.9097 38.2051 54.7157 37.7551 53.8157 36.8551C52.9157 35.9551 52.4657 34.8211 52.4657 33.4531C52.4657 32.0971 52.9097 30.9691 53.7977 30.0691C54.6857 29.1571 55.8257 28.7011 57.2177 28.7011C58.5377 28.7011 59.6237 29.1571 60.4757 30.0691C61.3397 30.9811 61.7717 32.1091 61.7717 33.4531C61.7717 33.7531 61.7417 34.0711 61.6817 34.4071H54.8957ZM54.8597 32.6071H59.4497C59.3177 31.9951 59.0417 31.5391 58.6217 31.2391C58.2137 30.9391 57.7457 30.7891 57.2177 30.7891C56.5937 30.7891 56.0777 30.9511 55.6697 31.2751C55.2617 31.5871 54.9917 32.0311 54.8597 32.6071ZM68.3967 28.7011C69.3807 28.7011 70.1907 29.0311 70.8267 29.6911C71.4747 30.3511 71.7987 31.2631 71.7987 32.4271V37.9531H69.4767V32.7151C69.4767 32.1151 69.3147 31.6591 68.9907 31.3471C68.6667 31.0231 68.2347 30.8611 67.6947 30.8611C67.0947 30.8611 66.6147 31.0471 66.2547 31.4191C65.8947 31.7911 65.7147 32.3491 65.7147 33.0931V37.9531H63.3927V28.9531H65.7147V29.9611C66.2787 29.1211 67.1727 28.7011 68.3967 28.7011ZM80.6034 25.3531H82.9254V37.9531H80.6034V36.8911C79.9194 37.7671 78.9474 38.2051 77.6874 38.2051C76.4754 38.2051 75.4374 37.7491 74.5734 36.8371C73.7214 35.9131 73.2954 34.7851 73.2954 33.4531C73.2954 32.1211 73.7214 30.9991 74.5734 30.0871C75.4374 29.1631 76.4754 28.7011 77.6874 28.7011C78.9474 28.7011 79.9194 29.1391 80.6034 30.0151V25.3531ZM76.3194 35.2891C76.7994 35.7571 77.3994 35.9911 78.1194 35.9911C78.8394 35.9911 79.4334 35.7571 79.9014 35.2891C80.3694 34.8091 80.6034 34.1971 80.6034 33.4531C80.6034 32.7091 80.3694 32.1031 79.9014 31.6351C79.4334 31.1551 78.8394 30.9151 78.1194 30.9151C77.3994 30.9151 76.7994 31.1551 76.3194 31.6351C75.8514 32.1031 75.6174 32.7091 75.6174 33.4531C75.6174 34.1971 75.8514 34.8091 76.3194 35.2891ZM99.503 28.7011C100.535 28.7011 101.357 29.0371 101.969 29.7091C102.593 30.3811 102.905 31.2811 102.905 32.4091V37.9531H100.583V32.5711C100.583 32.0311 100.451 31.6111 100.187 31.3111C99.923 31.0111 99.551 30.8611 99.0709 30.8611C98.543 30.8611 98.129 31.0351 97.829 31.3831C97.541 31.7311 97.397 32.2351 97.397 32.8951V37.9531H95.075V32.5711C95.075 32.0311 94.943 31.6111 94.679 31.3111C94.415 31.0111 94.043 30.8611 93.563 30.8611C93.047 30.8611 92.633 31.0351 92.321 31.3831C92.021 31.7311 91.871 32.2351 91.871 32.8951V37.9531H89.5489V28.9531H91.871V29.9071C92.411 29.1031 93.245 28.7011 94.373 28.7011C95.477 28.7011 96.293 29.1331 96.821 29.9971C97.421 29.1331 98.315 28.7011 99.503 28.7011ZM106.839 34.4071C107.151 35.5351 107.997 36.0991 109.377 36.0991C110.265 36.0991 110.937 35.7991 111.393 35.1991L113.265 36.2791C112.377 37.5631 111.069 38.2051 109.341 38.2051C107.853 38.2051 106.659 37.7551 105.759 36.8551C104.859 35.9551 104.409 34.8211 104.409 33.4531C104.409 32.0971 104.853 30.9691 105.741 30.0691C106.629 29.1571 107.769 28.7011 109.161 28.7011C110.481 28.7011 111.567 29.1571 112.419 30.0691C113.283 30.9811 113.715 32.1091 113.715 33.4531C113.715 33.7531 113.685 34.0711 113.625 34.4071H106.839ZM106.803 32.6071H111.393C111.261 31.9951 110.985 31.5391 110.565 31.2391C110.157 30.9391 109.689 30.7891 109.161 30.7891C108.537 30.7891 108.021 30.9511 107.613 31.2751C107.205 31.5871 106.935 32.0311 106.803 32.6071ZM117.127 31.5091C117.127 31.7491 117.283 31.9471 117.595 32.1031C117.919 32.2471 118.309 32.3791 118.765 32.4991C119.221 32.6071 119.677 32.7511 120.133 32.9311C120.589 33.0991 120.973 33.3871 121.285 33.7951C121.609 34.2031 121.771 34.7131 121.771 35.3251C121.771 36.2491 121.423 36.9631 120.727 37.4671C120.043 37.9591 119.185 38.2051 118.153 38.2051C116.305 38.2051 115.045 37.4911 114.373 36.0631L116.389 34.9291C116.653 35.7091 117.241 36.0991 118.153 36.0991C118.981 36.0991 119.395 35.8411 119.395 35.3251C119.395 35.0851 119.233 34.8931 118.909 34.7491C118.597 34.5931 118.213 34.4551 117.757 34.3351C117.301 34.2151 116.845 34.0651 116.389 33.8851C115.933 33.7051 115.543 33.4231 115.219 33.0391C114.907 32.6431 114.751 32.1511 114.751 31.5631C114.751 30.6751 115.075 29.9791 115.723 29.4751C116.383 28.9591 117.199 28.7011 118.171 28.7011C118.903 28.7011 119.569 28.8691 120.169 29.2051C120.769 29.5291 121.243 29.9971 121.591 30.6091L119.611 31.6891C119.323 31.0771 118.843 30.7711 118.171 30.7711C117.871 30.7711 117.619 30.8371 117.415 30.9691C117.223 31.1011 117.127 31.2811 117.127 31.5091ZM124.931 31.5091C124.931 31.7491 125.087 31.9471 125.399 32.1031C125.723 32.2471 126.113 32.3791 126.569 32.4991C127.025 32.6071 127.481 32.7511 127.937 32.9311C128.393 33.0991 128.777 33.3871 129.089 33.7951C129.413 34.2031 129.575 34.7131 129.575 35.3251C129.575 36.2491 129.227 36.9631 128.531 37.4671C127.847 37.9591 126.989 38.2051 125.957 38.2051C124.109 38.2051 122.849 37.4911 122.177 36.0631L124.193 34.9291C124.457 35.7091 125.045 36.0991 125.957 36.0991C126.785 36.0991 127.199 35.8411 127.199 35.3251C127.199 35.0851 127.037 34.8931 126.713 34.7491C126.401 34.5931 126.017 34.4551 125.561 34.3351C125.105 34.2151 124.649 34.0651 124.193 33.8851C123.737 33.7051 123.347 33.4231 123.023 33.0391C122.711 32.6431 122.555 32.1511 122.555 31.5631C122.555 30.6751 122.879 29.9791 123.527 29.4751C124.187 28.9591 125.003 28.7011 125.975 28.7011C126.707 28.7011 127.373 28.8691 127.973 29.2051C128.573 29.5291 129.047 29.9971 129.395 30.6091L127.415 31.6891C127.127 31.0771 126.647 30.7711 125.975 30.7711C125.675 30.7711 125.423 30.8371 125.219 30.9691C125.027 31.1011 124.931 31.2811 124.931 31.5091ZM137.785 28.9531H140.107V37.9531H137.785V36.8911C137.089 37.7671 136.111 38.2051 134.851 38.2051C133.651 38.2051 132.619 37.7491 131.755 36.8371C130.903 35.9131 130.477 34.7851 130.477 33.4531C130.477 32.1211 130.903 30.9991 131.755 30.0871C132.619 29.1631 133.651 28.7011 134.851 28.7011C136.111 28.7011 137.089 29.1391 137.785 30.0151V28.9531ZM133.501 35.2891C133.969 35.7571 134.563 35.9911 135.283 35.9911C136.003 35.9911 136.597 35.7571 137.065 35.2891C137.545 34.8091 137.785 34.1971 137.785 33.4531C137.785 32.7091 137.545 32.1031 137.065 31.6351C136.597 31.1551 136.003 30.9151 135.283 30.9151C134.563 30.9151 133.969 31.1551 133.501 31.6351C133.033 32.1031 132.799 32.7091 132.799 33.4531C132.799 34.1971 133.033 34.8091 133.501 35.2891ZM149.107 28.9531H151.375V37.5211C151.375 38.9131 150.913 39.9751 149.989 40.7071C149.077 41.4391 147.973 41.8051 146.677 41.8051C145.705 41.8051 144.847 41.6191 144.103 41.2471C143.371 40.8751 142.807 40.3291 142.411 39.6091L144.391 38.4751C144.847 39.3151 145.633 39.7351 146.749 39.7351C147.481 39.7351 148.057 39.5431 148.477 39.1591C148.897 38.7751 149.107 38.2291 149.107 37.5211V36.5491C148.423 37.4611 147.463 37.9171 146.227 37.9171C144.955 37.9171 143.887 37.4731 143.023 36.5851C142.171 35.6851 141.745 34.5931 141.745 33.3091C141.745 32.0371 142.177 30.9511 143.041 30.0511C143.905 29.1511 144.967 28.7011 146.227 28.7011C147.463 28.7011 148.423 29.1571 149.107 30.0691V28.9531ZM144.769 35.0911C145.249 35.5471 145.855 35.7751 146.587 35.7751C147.319 35.7751 147.919 35.5471 148.387 35.0911C148.867 34.6231 149.107 34.0291 149.107 33.3091C149.107 32.6011 148.867 32.0191 148.387 31.5631C147.919 31.0951 147.319 30.8611 146.587 30.8611C145.855 30.8611 145.249 31.0951 144.769 31.5631C144.301 32.0191 144.067 32.6011 144.067 33.3091C144.067 34.0291 144.301 34.6231 144.769 35.0911ZM155.443 34.4071C155.755 35.5351 156.601 36.0991 157.981 36.0991C158.869 36.0991 159.541 35.7991 159.997 35.1991L161.869 36.2791C160.981 37.5631 159.673 38.2051 157.945 38.2051C156.457 38.2051 155.263 37.7551 154.363 36.8551C153.463 35.9551 153.013 34.8211 153.013 33.4531C153.013 32.0971 153.457 30.9691 154.345 30.0691C155.233 29.1571 156.373 28.7011 157.765 28.7011C159.085 28.7011 160.171 29.1571 161.023 30.0691C161.887 30.9811 162.319 32.1091 162.319 33.4531C162.319 33.7531 162.289 34.0711 162.229 34.4071H155.443ZM155.407 32.6071H159.997C159.865 31.9951 159.589 31.5391 159.169 31.2391C158.761 30.9391 158.293 30.7891 157.765 30.7891C157.141 30.7891 156.625 30.9511 156.217 31.2751C155.809 31.5871 155.539 32.0311 155.407 32.6071Z" fill="white"/>
<defs>
<filter id="filter0_f" x="0.779541" y="0.953125" width="206.461" height="78" filterUnits="userSpaceOnUse" color-interpolation-filters="sRGB">
<feFlood flood-opacity="0" result="BackgroundImageFix"/>
<feBlend mode="normal" in="SourceGraphic" in2="BackgroundImageFix" result="shape"/>
<feGaussianBlur stdDeviation="10" result="effect1_foregroundBlur"/>
</filter>
</defs>
</svg>
