<svg width="60" height="90" viewBox="0 0 60 90" fill="none" xmlns="http://www.w3.org/2000/svg">
<g clip-path="url(#clip0)">
<path d="M15.4206 89.2004C23.5982 89.2004 30.2311 82.5746 30.2311 74.4059V59.6113H15.4206C7.24303 59.6113 0.610107 66.2371 0.610107 74.4059C0.610107 82.5746 7.24303 89.2004 15.4206 89.2004Z" fill="#0ACF83"/>
<path d="M0.610107 44.7985C0.610107 36.6297 7.24303 30.0039 15.4206 30.0039H30.2311V59.6111H15.4206C7.24303 59.593 0.610107 52.9672 0.610107 44.7985Z" fill="#A259FF"/>
<path d="M0.610107 15.191C0.610107 7.02226 7.24303 0.396484 15.4206 0.396484H30.2311V30.0037H15.4206C7.24303 30.0037 0.610107 23.3598 0.610107 15.191Z" fill="#F24E1E"/>
<path d="M30.2493 0.396484H45.0598C53.2373 0.396484 59.8702 7.02226 59.8702 15.191C59.8702 23.3598 53.2373 29.9856 45.0598 29.9856H30.2493V0.396484Z" fill="#FF7262"/>
<path d="M59.8703 44.7985C59.8703 52.9672 53.2373 59.593 45.0598 59.593C36.8822 59.593 30.2493 52.9672 30.2493 44.7985C30.2493 36.6297 36.8822 30.0039 45.0598 30.0039C53.2373 30.0039 59.8703 36.6297 59.8703 44.7985Z" fill="#1ABCFE"/>
</g>
<defs>
<clipPath id="clip0">
<rect width="59.2601" height="88.8036" fill="white" transform="translate(0.610107 0.396484)"/>
</clipPath>
</defs>
</svg>
