<svg width="40" height="41" viewBox="0 0 40 41" fill="none" xmlns="http://www.w3.org/2000/svg">
<path d="M30.6636 7.85502L30.9693 7.47078L30.5907 7.15813C27.6753 4.75099 23.9726 3.3131 19.9218 3.3131C18.5026 3.3131 17.1267 3.51192 15.8239 3.83763L15.0968 4.01942L15.5439 4.62097C16.9345 6.49184 18.9322 9.31741 21.3246 13.7427L21.5312 14.1249L21.9385 13.9737C26.4658 12.2926 29.1786 9.72116 30.6636 7.85502ZM13.3633 5.09724L13.1183 4.77446L12.7517 4.94735C8.2556 7.06817 4.84923 11.119 3.50458 16.066L3.3385 16.677L3.97134 16.6969C6.44724 16.7748 12.3654 16.6581 18.9231 14.9013L19.5416 14.7356L19.2309 14.1758C16.6875 9.59206 14.5485 6.65852 13.3633 5.09724ZM32.8171 9.35623L32.4294 8.89559L32.0478 9.36132C30.3918 11.3825 27.5165 14.0079 22.9642 15.7892L22.4579 15.9873L22.6976 16.4753C23.6791 18.4734 24.6313 20.6027 25.4989 22.9022L25.6418 23.281L26.0421 23.2199C29.3354 22.7171 32.3796 22.717 34.679 22.8971C35.2381 22.9435 35.5988 22.9956 36.0187 23.0563C36.1072 23.069 36.1982 23.0822 36.2943 23.0957L36.8064 23.168L36.8614 22.6538C36.9288 22.0232 36.9676 21.39 36.9676 20.7354C36.9676 16.3818 35.3902 12.4133 32.8171 9.35623ZM20.6701 16.9835L20.485 16.6124L20.086 16.7257C12.3727 18.917 5.57803 18.8501 3.46198 18.7647L2.98015 18.7452L2.94327 19.226L2.94069 19.2597C2.90413 19.7362 2.8666 20.2253 2.8666 20.745C2.8666 25.9787 5.13097 30.6507 8.70191 33.8476L9.07471 34.1814L9.40819 33.8083C10.3033 32.807 11.5039 31.5317 12.9635 30.2005L12.9655 30.1987C15.7118 27.667 19.2452 24.9882 23.0942 23.8194L23.6111 23.6625L23.4147 23.1592C22.5532 20.9515 21.6256 18.8993 20.6701 16.9835ZM30.1596 24.8797L30.1542 24.8799C29.1431 24.9287 28.0668 25.0262 26.9723 25.1722L26.3775 25.2515L26.5628 25.8223C27.4866 28.6661 28.2507 31.6787 28.7443 34.8125L28.8686 35.6013L29.5239 35.145C32.71 32.9264 35.12 29.6294 36.2427 25.759L36.408 25.1894L35.8186 25.1229C34.3586 24.958 32.5073 24.7919 30.1596 24.8797ZM24.5036 26.065L24.35 25.6116L23.8904 25.7454C20.509 26.7292 16.9721 29.2804 14.2917 31.7407C12.9965 32.9194 11.9505 34.0382 11.111 34.9546L10.6983 35.4051L11.2216 35.7206C13.7671 37.2549 16.723 38.1576 19.9124 38.1576C22.306 38.1576 24.5638 37.6519 26.6257 36.7609L26.9737 36.6105L26.9228 36.2348C26.4385 32.6609 25.5843 29.2548 24.5036 26.065ZM0.867676 20.7354C0.867676 9.98214 9.43492 1.23633 19.9218 1.23633C30.4087 1.23633 38.9759 9.98214 38.9759 20.7354C38.9759 31.4886 30.4087 40.2344 19.9218 40.2344C9.43492 40.2344 0.867676 31.4886 0.867676 20.7354Z" fill="#070707" stroke="#070707"/>
</svg>
