<svg width="40" height="41" viewBox="0 0 40 41" fill="none" xmlns="http://www.w3.org/2000/svg">
<path d="M12.1663 1.24594H12.6663V1.23633H28.571C34.5356 1.23633 39.4181 6.22102 39.4181 12.3484V29.1223C39.4181 35.25 34.5353 40.2344 28.5804 40.2344H12.1663C6.20035 40.2344 1.30981 35.2579 1.30981 29.1416V12.358C1.30981 6.23117 6.20115 1.24594 12.1663 1.24594ZM3.31814 12.3666V12.3676V29.1512C3.31814 34.1373 7.2457 38.168 12.1663 38.168H28.5804C33.4836 38.168 37.4097 34.1358 37.4097 29.132V12.358C37.4097 7.35373 33.4833 3.32198 28.571 3.32198H12.1663C7.25349 3.32198 3.32807 7.35405 3.31814 12.3666ZM31.4025 8.43603C31.4025 7.8461 31.8565 7.39801 32.4067 7.39801C32.9568 7.39801 33.4108 7.8461 33.4108 8.43603C33.4108 9.02596 32.9568 9.47404 32.4067 9.47404C31.8565 9.47404 31.4025 9.02596 31.4025 8.43603ZM10.3442 20.7402C10.3442 15.0844 14.8689 10.474 20.3733 10.474C25.8778 10.474 30.4025 15.0844 30.4025 20.7402C30.4025 26.3959 25.8778 31.0063 20.3733 31.0063C14.8689 31.0063 10.3442 26.3959 10.3442 20.7402ZM28.3942 20.7402C28.3942 16.2066 24.834 12.5501 20.3733 12.5501C15.9127 12.5501 12.3525 16.2066 12.3525 20.7402C12.3525 25.2737 15.9127 28.9302 20.3733 28.9302C24.834 28.9302 28.3942 25.2737 28.3942 20.7402Z" fill="#070707" stroke="#070707"/>
</svg>
