<svg width="41" height="41" viewBox="0 0 41 41" fill="none" xmlns="http://www.w3.org/2000/svg">
<g clip-path="url(#clip0)">
<path d="M34.3199 0.953125H5.96011C2.72025 0.953125 0.0844727 3.5816 0.0844727 6.8125V35.0938C0.0844727 38.3246 2.72025 40.9531 5.96011 40.9531H34.3199C37.5597 40.9531 40.1955 38.3246 40.1955 35.0938V6.8125C40.1955 3.5816 37.5597 0.953125 34.3199 0.953125ZM37.8453 35.0938C37.8453 37.0322 36.2637 38.6094 34.3199 38.6094H5.96011C4.01625 38.6094 2.43473 37.0322 2.43473 35.0938V6.8125C2.43473 4.87402 4.01625 3.29688 5.96011 3.29688H34.3199C36.2637 3.29688 37.8453 4.87402 37.8453 6.8125V35.0938Z" fill="#070707" stroke="#070707" stroke-width="0.5"/>
<path d="M18.9649 17.4375C18.9649 14.8527 16.8564 12.75 14.2644 12.75H7.21362V29.1562H14.2644C16.8564 29.1562 18.9649 27.0536 18.9649 24.4688C18.9649 23.0698 18.3464 21.8128 17.3684 20.9531C18.3464 20.0934 18.9649 18.8364 18.9649 17.4375ZM16.6146 24.4688C16.6146 25.7612 15.5604 26.8125 14.2644 26.8125H9.56388V22.125H14.2644C15.5604 22.125 16.6146 23.1763 16.6146 24.4688ZM9.56388 19.7812V15.0938H14.2644C15.5604 15.0938 16.6146 16.1451 16.6146 17.4375C16.6146 18.7299 15.5604 19.7812 14.2644 19.7812H9.56388Z" fill="#070707" stroke="#070707" stroke-width="0.5"/>
<path d="M27.1908 17.4375C23.951 17.4375 21.3152 20.066 21.3152 23.2969C21.3152 26.5278 23.951 29.1562 27.1908 29.1562C29.2819 29.1562 31.2319 28.0341 32.2797 26.2275L30.2452 25.0538C29.6161 26.1387 28.4455 26.8125 27.1908 26.8125C25.6586 26.8125 24.3519 25.8329 23.8668 24.4688H33.0665V23.2969C33.0665 20.066 30.4307 17.4375 27.1908 17.4375ZM23.8668 22.125C24.3519 20.7609 25.6586 19.7812 27.1908 19.7812C28.7231 19.7812 30.0298 20.7609 30.5148 22.125H23.8668Z" fill="#070707" stroke="#070707" stroke-width="0.5"/>
<path d="M22.4902 12.75H31.8913V15.0938H22.4902V12.75Z" fill="#070707" stroke="#070707" stroke-width="0.5"/>
</g>
<defs>
<clipPath id="clip0">
<rect width="40.111" height="40" fill="white" transform="translate(0.0844727 0.953125)"/>
</clipPath>
</defs>
</svg>
